<?xml version="1.0" encoding="utf-8"?>
<!-- Generator: Adobe Illustrator 25.2.3, SVG Export Plug-In . SVG Version: 6.00 Build 0)  -->
<svg version="1.1" id="svg3752" xmlns="http://www.w3.org/2000/svg" xmlns:xlink="http://www.w3.org/1999/xlink" x="0px" y="0px"
	 viewBox="0 0 97.4 35.4" style="enable-background:new 0 0 97.4 35.4;" xml:space="preserve">
<style type="text/css">
	.st0{fill:#FF0000;}
	.st1{opacity:0.9963;fill:#FF0000;enable-background:new    ;}
	.st2{opacity:0.9963;fill-rule:evenodd;clip-rule:evenodd;fill:#FFFFFF;enable-background:new    ;}
</style>
<path id="path5" d="M2.9,1.1c-0.5,0-1,0-1.5,0.1c-0.5,0.2-1,0.6-1.2,1C0,2.9-0.1,3.5,0.1,4.1c0.3,0.7,0.8,1.3,1.6,1.5
	c0.1,0,0.3,0,0.5,0.1c0.5,0,1.1,0.1,1.6,0C6.3,5.7,6.8,6,6.9,7.5C6.9,8.1,7,23.8,7,24.3c0,0.3,0,0.2,0,2.4c0,1.5,0,1.7-0.2,2.1
	c-0.2,0.3-0.5,0.6-0.9,0.7c-0.1,0-0.3,0.1-0.4,0.1c-0.6,0.1-1.3,0.2-1.9,0.1c-0.6,0-1.3,0-1.9,0.1c-0.5,0.2-0.9,0.6-1.1,1
	c-0.3,0.7-0.3,1.4,0,2c0.3,0.6,0.8,1,1.4,1.2c0.2,0.1,0.5,0.1,0.7,0.1c3.9-0.2,7.7-0.3,11.6-0.1c2.2,0.1,2.4,0.1,2.9,0
	c1-0.2,1.7-1.2,1.6-2.2c-0.1-0.8-0.5-1.5-1.2-1.9c-0.8-0.2-1.6-0.3-2.4-0.2c-1.4,0-1.9,0-2.3-0.3c-0.4-0.3-0.6-0.8-0.7-1.3
	c-0.1-0.5-0.1-1-0.1-4.4c0-2.1,0-5.1,0-6.7c-0.1-7-0.1-8.8,0-9.5c0.2-1.4,0.6-1.8,1.8-1.8c0.3,0,1.1,0,1.7,0c1.4,0,1.9-0.1,2.4-0.7
	c0.5-0.4,0.7-1,0.7-1.6c0-0.4-0.1-0.8-0.2-1.1C17.8,1.2,17,1,14.6,1.2c-1.1,0.1-6.9,0.1-8.4,0C4.8,1.1,3.7,1.1,2.9,1.1L2.9,1.1z"/>
<path id="path7" d="M6.5,5C6.5,5,6.5,5,6.5,5c0,0.2,0,0.2-0.1,0.1C6.4,5.1,6.4,5,6.5,5C6.5,5,6.5,5,6.5,5z"/>
<path id="path9" d="M21.9,11.8L21.9,11.8z"/>
<path id="path2848-1" class="st0" d="M39,34.1c-0.4-0.2-0.8-0.5-1.2-0.7c0-0.1-0.1-0.1-0.2-0.1c-0.2-0.1-0.3-0.1-0.4-0.2
	c-0.1-0.1-0.3-0.2-0.4-0.2c-0.1-0.1-0.3-0.2-0.4-0.3c-0.2-0.1-0.5-0.3-0.6-0.4c-0.7-0.4-2.6-1.9-4.4-3.3c-1.3-1.1-2.5-2.2-3.6-3.4
	c-0.8-0.9-1.6-1.8-2.3-2.7c-0.4-0.5-0.8-1-0.9-1.2c-0.7-1.1-1.3-2.2-1.8-3.4c-0.1-0.2-0.1-0.4-0.2-0.5c-0.3-0.9-0.6-1.8-0.8-2.7
	c0-0.2-0.1-0.6-0.2-0.8c-0.1-1.6-0.1-3.2,0-4.8c0.4-1.8,1.1-3.5,2.1-5c1-1.2,2.1-2.2,3.4-3C27.6,1,28,0.9,28.4,0.7
	c2-0.8,4.1-0.9,6.2-0.4c0.8,0.2,1.5,0.4,2.2,0.8c0.7,0.4,1.3,0.8,1.9,1.3c0.7,0.6,1.3,1.2,1.8,2c0.3,0.4,0.6,0.6,0.7,0.4
	c0.7-1,1.6-1.8,2.5-2.5c0.3-0.2,0.6-0.4,0.8-0.5c1-0.6,2.1-1.1,3.3-1.4c1.8-0.3,3.7-0.3,5.5,0.1c1.1,0.4,2.1,0.8,3.1,1.4
	c1.4,1.1,2.5,2.5,3.3,4c0.4,0.9,0.8,1.8,1,2.7C61,9.8,61.1,11,61,12.1c0,1.2-0.2,2.3-0.4,3.4c-0.3,1.1-0.7,2.2-1.1,3.2
	c-0.2,0.3-0.3,0.5-0.4,0.8c-0.4,0.7-0.8,1.4-1.2,2.1c-0.1,0.1-0.3,0.4-0.5,0.7c-0.4,0.7-0.9,1.3-1.4,1.8c-1.2,1.4-2.5,2.7-3.8,3.9
	c-0.3,0.2-1.6,1.3-2.2,1.8c-0.2,0.2-0.5,0.4-0.8,0.6s-0.7,0.5-1.1,0.8s-1.1,0.8-1.6,1.1s-1.1,0.7-1.3,0.9c-0.2,0.1-0.4,0.3-0.6,0.4
	c-0.3,0.1-0.5,0.3-0.8,0.4c-0.7,0.4-1.4,0.8-2.1,1.2C40.6,35,39.8,34.6,39,34.1L39,34.1z"/>
<g id="g3792">
	<g>
		<rect id="rect3779" x="64" y="1" class="st1" width="33" height="33"/>
	</g>
	<path id="rect3787" class="st2" d="M66,2v30L96,2H66z"/>
</g>
</svg>
