<svg id="Layer_1" data-name="Layer 1" xmlns="http://www.w3.org/2000/svg" viewBox="0 0 22.866 28.26">
  <polygon points="13.34 18.734 11.4 28.26 9.49 18.734 0 16.794 9.49 14.889 11.396 5.329 13.34 14.889 22.866 16.831 13.34 18.734"/>
  <polygon points="11.4 6.174 9.632 14.96 11.396 16.83 11.4 6.174" style="fill: #fff"/>
  <polygon points="0.846 16.83 9.632 18.63 11.396 16.83 0.846 16.83" style="fill: #fff"/>
  <polygon points="11.396 16.83 11.396 27.378 13.196 18.628 11.396 16.83" style="fill: #fff"/>
  <polygon points="13.196 14.96 11.396 16.83 21.98 16.83 13.196 14.96" style="fill: #fff"/>
  <path d="M9.315,0h.952L12.74,2.93V.637a1.086,1.086,0,0,0-.036-.3A.228.228,0,0,0,12.6.18a.394.394,0,0,0-.326-.108H12.24V0h1.269V.072H13.4a.46.46,0,0,0-.387.14v3.6h-.1L10.34.848V3.105a1.529,1.529,0,0,0,.036.5.43.43,0,0,0,.318.106h.175v.07H9.526v-.07h.106a.429.429,0,0,0,.227-.052c.06-.036.114-.066.16-.09a1.539,1.539,0,0,0,.036-.459V.5A.1.1,0,0,1,9.983.459C9.866.365,9.79.3,9.754.266A.451.451,0,0,0,9.526.178C9.5.13,9.432.106,9.315.106Z"/>
</svg>
