<?xml version="1.0" encoding="utf-8"?>
<!-- Generator: Adobe Illustrator 25.2.3, SVG Export Plug-In . SVG Version: 6.00 Build 0)  -->
<svg version="1.1" id="Layer_1" xmlns="http://www.w3.org/2000/svg" xmlns:xlink="http://www.w3.org/1999/xlink" x="0px" y="0px"
	 viewBox="0 0 242.6 76" style="enable-background:new 0 0 242.6 76;" xml:space="preserve">
<style type="text/css">
	.st0{fill:#B8B8B8;}
	.st1{fill:#5B5A59;}
	.st2{fill:#F97B26;}
	.st3{fill:#8AE3F9;}
	.st4{fill:#F4F4F4;}
</style>
<path class="st0" d="M240.4,50.2c-0.3,3.1,0.2,6.9-0.4,10.7c-1.5,9.7-10.8,13.5-18.2,12.8c-1.9-0.2-3.7-0.6-5.5-0.9
	c-3.1-0.5-5.6-1.7-6.9-4.8c-0.4-1-1.3-1.1-2.2-1.2c-3.1-0.5-6.2,0-9.3-0.1c-5.6-0.2-11.4,1.1-16.7-0.5c-3.5-1.1-6.2-0.3-9.3,0.4
	c-0.8,0.3-1.6,0.4-2.4,0.3c-5.8-1.5-11.5,0.2-17.2,0.1c-2.5,0.1-5-0.5-7.2-1.7c-1.2-0.7-2.6-0.7-3.8-0.1c-5.7,2.4-12,2.6-17.8,0.4
	c-0.9-0.3-1.9-0.3-2.9,0.1c-4.6,1.8-9.8,1.8-14.4,0c-2.2-0.9-4,0.7-6,0.8c-1.9,0.3-3.9,0.3-5.8,0c-1.9-0.4-3.8-0.4-5.6,0
	c-2.1,0.5-4.3,0.5-6.4,0c-2.4-0.5-4.8-0.5-7.2,0c-4.5,0.8-9.1,0.9-13.4-1.1c-1.1-0.5-2.4-0.5-3.5,0.1c-4.1,1.8-8.9,1.8-13-0.1
	c-0.9-0.5-2-0.5-2.9-0.1c-4.3,2-9.2,2-13.4-0.1c-0.8-0.5-1.9-0.5-2.7-0.1c-8.8,3.8-17.1,1.2-21.7-5.8C0,52.4,1,42.2,7.4,36.5
	c2.3-2,1.5-2.6-0.3-4.3c-5.2-5.3-6.6-11.8-4.4-19C4.6,7.1,9,3.7,15,2.2c3.9-0.9,7.9-0.4,11.4,1.5c1,0.5,2.2,0.5,3.3,0.1
	c7.5-2.4,15-3.5,22,1.5c0.9,0.7,2.1,0.6,3-0.1C60.3,1.4,66,0.6,72.1,3.4c2.9,1.4,5.4-0.6,8.1-0.9c5-0.6,10-1.3,14.8,1.2
	c4.6,2.3,7.5,6.9,7.7,12c0.2,3.3,0.1,6.6,0.1,9.9c0,1.7,0.6,2.5,2.5,2c1.1-0.3,2.3-0.5,3.4-0.6c3.4-0.7,6.8,0.9,8.4,3.9
	c1.3,2.4,4.2,3.5,6.7,2.6c5.6-2.2,10.9-1.4,15.9,1.7c1.1,0.8,2.6,0.8,3.6,0c5.4-3.6,11.2-3.9,17-1c1.1,0.6,2.4,0.7,3.5,0.1
	c3-1.1,6.2-1.8,9.4-2c1.1,0,2-0.7,2.3-1.8c1.5-4.2,4.7-6.4,9.1-6.8c4.4-0.2,8.5,2.4,10.1,6.6c0.9,2.3,2.2,2.8,4.3,2.3
	c4.6-1,8.7,0.1,12.6,2.4c1.1,0.9,2.7,0.9,3.9,0.1c6.7-4.2,13.7-3.3,20.6-1c2.6,0.9,4.4,3.4,4.3,6.2
	C240.5,43.3,240.4,46.4,240.4,50.2z"/>
<path class="st1" d="M236.1,49.7c0,2.8,0.1,5.5,0,8.3c-0.3,6.8-4.1,10.8-11,11.5c-3.2,0.2-6.5-0.2-9.5-1.1c-1.9-0.5-2.4-1.9-2.1-3.8
	c0.3-1.9,0.8-3.2-2.3-2.4c-2.6,0.7-5.7,1.1-8.2-0.9c-0.4-0.4-1-0.4-1.5-0.1c-3.3,2-6.6,1.7-10,0.3c-0.6-0.2-1.2-0.1-1.8,0.2
	c-2.4,1.2-4.9,0.7-7.4,0.5c-1.9-0.1-2.7-1.5-2.7-3.4c0-3.1-0.1-6.2,0-9.4c0.1-2.8-1.9-2.3-3.5-2.5c-2-0.2-1.4,1.4-1.4,2.4
	c-0.1,3,0,6.1,0,9.1c0,2.5-1.2,3.9-3.8,3.8c-2.4-0.1-5,0.7-7.2-1.3c-0.7-0.7-1.5,0-2.2,0.3c-3.8,1.5-7.9,1.8-11.9,1
	c-2.7-0.5-5.1-1.9-6.8-4c-0.9-1.1-1.8-1.5-2,0.5s-1.7,2.7-3.3,3c-5.2,1.2-10.3,1.7-15-1.6c-0.6-0.5-1.6-0.5-2.1,0.1
	c-4.7,3.3-11.1,3.1-15.6-0.6c-1.2-1.1-1.9-1.7-2.4,0.4c-0.4,1.4-1.7,2.2-3.1,2.1c-2.5-0.1-5.2,0.8-7.5-1.2c-0.4-0.3-0.9-0.3-1.3-0.1
	c-3.2,2.1-7.4,2-10.6-0.1c-0.8-0.5-1.3,0.1-2,0.3c-3.8,1.5-7.9,1.9-11.9,1.1c-2.6-0.5-4.9-1.8-6.7-3.7c-1-1.1-1.8-1.4-2,0.4
	c-0.2,2.4-1.7,3.1-3.8,3.2c-7,0.4-7.5-0.1-7.5-7.1c-0.1-1.9-0.1-3.7,0-5.6c0.3-2.7-1.6-2.5-3.2-2.7c-2.2-0.3-1.7,1.3-1.7,2.5
	c0,3,0,6.1,0,9.1c0,2.7-1,3.7-3.7,3.8c-1.3,0.1-2.7,0-4,0c-1.9-0.1-3.2-0.9-3.5-3c-0.1-0.6,0.2-1.4-0.6-1.6c-0.8-0.2-1,0.6-1.4,1
	c-4,4.1-8.9,5-14.1,3.1c-5.4-1.9-7.7-6.2-8-11.6c-0.3-5.5,1.7-10,6.8-12.6c4.9-2.5,10.7-1.6,14.7,2.1c0.6,0.6,1.1,1.9,2,1.4
	c1-0.6,1.5-1.9,1.2-3c-0.9-3-0.3-6-0.5-9c0-0.6,0.2-1.3-0.4-1.7c-0.9-0.5-1.2,0.5-1.7,0.9c-3.9,4-9.8,5.1-14.8,2.9
	C8.2,28.6,5.3,23,5.9,17.1C6.6,11.3,10.2,7,15.7,5.8c4.4-1.1,9,0.3,12,3.6c1.2,1.2,2,2.2,2.4-0.5C30.2,7.9,31,7,32,6.8
	c5-0.7,9.8-1.6,14.7,0.2c2.2,0.8,4.1,2.3,5.4,4.2c0.9,1.4,1.6,1.5,2.7,0C59.6,4.7,67.6,4,73.7,9.6c1.1,1,1.7,1.3,2.2-0.4
	c0.2-1,1-1.8,2-2c4.1-0.9,8.2-1.8,12.5-0.9c4.7,1,7.8,4.2,8.1,9c0.3,4.4,0.1,8.9,0.2,13.4c0,1.4-0.5,2.6-1.9,2.9
	c-2.8,0.5-5.7,1-8.4-0.5c-0.6-0.4-1.1-0.8-1.9-0.4c-3.2,2-7.2,2-10.3-0.1c-0.6-0.3-1.2-0.3-1.8,0.1c-4.6,2.1-9.9,2.3-14.6,0.6
	c-1.7-0.6-2.3-0.3-1.8,1.5c0.7,2.4-1.8,4.5-0.4,6.9c0.3,0.5-0.1,1.3,0.7,1.6s1.1-0.4,1.5-0.9c5.5-5.4,12.3-5.6,17.9-0.5
	c1.3,1.2,1.9,1.1,2.4-0.5c0.2-0.8,0.8-1.4,1.6-1.7c4.8-1.1,9.6-2.2,14.5-0.5c1.4,0.5,2.7,1.3,3.8,2.5c0.5,0.5,0.8,1.4,1.7,0.9
	c0.8-0.4,0.5-1.3,0.5-1.9c0-0.7,0-1.4,0-2.1c0-3.9,0.6-4.5,4.6-5c1-0.1,1.9-0.4,2.9-0.5c2.3-0.2,3.8,0.9,3.7,3.1
	c-0.1,2.4,1,2.9,3,2.7c1.4-0.1,2.8,0.1,3.5,1.5c0.8,1.8,1.6,1.4,2.9,0.4c3.2-2.5,7.4-3.2,11.2-1.9c2.5,0.6,4.6,2.2,5.9,4.3
	c1,1.6,1.8,1.5,2.9,0c3.2-4.3,8.8-6.1,13.9-4.3c1.8,0.6,3.4,1.6,4.7,3c0.6,0.7,1.5,1.5,2,0.1c0.7-1.8,2.3-2.2,3.8-2.6
	c3-0.8,6.1-1.6,9.3-0.9c2.3,0.5,3,0,2.7-2.5c-0.4-3.4,2-6,5.5-6.3c3.2-0.3,6,1.9,6.6,5.1c0.2,1.2,0,2.3-0.6,3.4
	c-0.2,0.6-0.5,1.2-0.1,1.8c0.6,0.7,1.1,0,1.7-0.1c3.4-1.1,7-1.5,10.6-1.4c3.8,0.1,7.2,1.4,9.2,5c0.5,0.9,1.1,2,2.1,0.5
	c4.6-6.6,11.1-6.2,17.9-4.9c3.8,0.7,4.1,1.3,4.1,5.2C236.1,44.9,236.1,47.3,236.1,49.7L236.1,49.7z"/>
<path class="st2" d="M233.4,50.3c0,2,0,3.9,0,5.9c0.2,8.4-4.6,11.4-12.7,10.5c-0.5-0.1-1.1-0.2-1.6-0.3c-3.2-0.5-3.3-0.8-2.5-4
	c0.3-1.2,0.7-1.4,1.8-1c1.6,0.5,3.3,0.8,5,0.7c1.4,0,2.6-0.6,3.5-1.7c0.5-0.5,0.7-1.3,0.5-2c-0.4-1-1.2-0.2-1.8-0.1
	c-5.3,0.9-9.2-1.5-10.3-6.2c-1.3-5.9,1.4-10.9,6.5-12.3c3.5-1,6.9-0.2,10.3,0.4c1.2,0.2,1.3,1,1.3,2
	C233.4,44.8,233.4,47.6,233.4,50.3z"/>
<path class="st3" d="M32.9,23.1c0-3.7,0-7.5,0-11.2c0-1.4,0.5-2,1.9-2.3c3.1-0.7,6.2-0.8,9.3-0.3c5.5,1.1,8.5,6.4,7.4,12.6
	c-1.1,5.8-5,8.6-10.9,7.5c-2-0.4-2.1,0.3-1.9,1.8c0,0.5,0,1.1,0,1.6c0,3.9,0,3.8-4,3.7c-1.4,0-1.9-0.4-1.9-1.8
	C33,30.7,32.9,26.9,32.9,23.1z"/>
<path class="st3" d="M67.3,21.3c-1.3,0-2.7,0-4,0c-0.6,0-1.6-0.4-1.9,0.5c-0.3,0.9,0.4,1.5,1.1,2c2.1,1.4,4.8,1.7,7.2,0.8
	c2.4-0.8,2.7,0.3,2.9,2.2c0.2,1.6-0.4,2.3-1.9,2.5c-1.3,0.3-2.6,0.5-4,0.6c-10,0.4-13.3-7-10.9-14.6c1.6-5,6.4-7.3,11.6-6.1
	c4.4,1.1,7.2,5.7,6.6,10.6c-0.1,1.1-0.6,1.5-1.7,1.5C70.7,21.2,69,21.3,67.3,21.3z"/>
<path class="st2" d="M155.3,51.5c-1.4,0-2.9,0-4.3,0c-0.7,0-1.6-0.3-1.9,0.6c-0.3,0.9,0.4,1.5,1,2c2.2,1.8,4.9,1.5,7.2,0.9
	c2.7-0.7,2.8,0.6,3,2.5c0.2,1.4-0.4,1.8-1.7,2.1c-2.6,0.6-5.3,0.7-8,0.3c-4-0.5-7.1-3.6-7.5-7.6c-0.8-5.9,1.1-10.2,5.4-12.3
	c3.6-1.7,7.8-1,10.7,1.8c2.3,2.3,2.4,5.2,2.6,8.2c0.1,1.2-0.6,1.5-1.7,1.5C158.5,51.4,156.9,51.5,155.3,51.5z"/>
<path class="st2" d="M132.7,51.5c-1.4,0-2.9,0-4.3,0c-0.6,0-1.6-0.4-1.8,0.6c-0.2,0.7,0.4,1.3,1,1.8c2.1,1.9,4.8,1.7,7.2,1.1
	c2.5-0.6,3.1,0,3.3,2.4c0.1,1.5-0.3,1.8-1.6,2.1c-2.7,0.7-5.5,0.8-8.3,0.3c-6-1-9-7-7.1-13.8c1.4-5.1,6.7-8,11.8-6.6
	c0.3,0.1,0.5,0.2,0.8,0.3c4,1.4,6.7,6.6,5.8,10.7c-0.2,1-0.8,1.1-1.5,1.1C136.1,51.5,134.4,51.5,132.7,51.5z"/>
<path class="st2" d="M18.8,60.1c-6,0-10.1-4.2-10.1-10.4c0-6.1,4.3-10.6,10.1-10.5c5.7,0,9.7,4.4,9.7,10.6
	C28.5,56,24.8,60,18.8,60.1z"/>
<path class="st2" d="M71.3,51.5c-1.3,0-2.7,0-4,0c-0.7,0-1.6-0.4-1.9,0.5c-0.2,0.8,0.4,1.5,1,2c2.4,1.9,5.1,1.4,7.7,1
	c1.6-0.2,2-0.3,2.5,1.5c0.6,2.4-0.3,3.1-2.3,3.4c-2.4,0.4-4.8,0.5-7.2,0.1c-3.5-0.4-6.4-2.9-7.3-6.3c-1.3-4.5-0.7-8.8,2.9-12
	c2.9-2.7,6.5-3.1,10.3-1.5c3.6,1.5,6.2,6.9,5.1,10.5c-0.3,1-0.9,0.9-1.6,0.9C74.7,51.5,73,51.5,71.3,51.5z"/>
<path class="st2" d="M82.5,49.9c0-2.5,0.1-5,0-7.5c-0.1-1.5,0.5-2.3,2-2.5c2.5-0.5,5-0.7,7.5-0.7c4.9,0.3,7.8,3,8,7.9
	c0.2,3.6,0,7.3,0.1,11c0.1,2-1.3,1.9-2.5,1.7c-1.3-0.1-3.3,0.9-3.4-1.7c0-3.4,0-6.8-0.1-10.2c-0.1-1.6-0.3-3.2-2.4-3.6
	c-2.8-0.6-3.4-0.2-3.4,2.6c0,3.5-0.2,7,0.1,10.4c0.2,2.4-0.9,2.6-2.8,2.6c-2,0-3.3-0.2-3.1-2.7C82.6,54.8,82.5,52.3,82.5,49.9z"/>
<path class="st3" d="M28.5,19.5c-0.1,6.2-4,10.4-9.8,10.4c-5.7,0.1-10-4.5-10-10.7c0-6,4.2-10.4,9.9-10.5
	C24.5,8.8,28.6,13.2,28.5,19.5z"/>
<path class="st2" d="M193.3,49.9c0-2.5,0.1-5,0-7.5c-0.1-1.5,0.5-2.3,2-2.5c2.3-0.4,4.6-0.7,6.9-0.8c5.4,0.2,8.2,2.6,8.6,7.9
	c0.3,3.6,0.1,7.3,0.1,11c0,2.6-2.1,1.6-3.4,1.7c-1.2,0.1-2.5,0.3-2.5-1.7c0.1-3.4,0.1-6.8,0-10.2c-0.1-1.6-0.3-3.2-2.4-3.6
	c-2.7-0.6-3.4-0.1-3.4,2.6c0,3.5-0.2,7,0.1,10.4c0.2,2.4-0.9,2.6-2.8,2.6c-2,0-3.3-0.2-3.1-2.7C193.4,54.8,193.3,52.3,193.3,49.9z"
	/>
<path class="st3" d="M78.5,19.7c0-2.6,0.1-5.2,0-7.7c-0.1-1.6,0.5-2.1,2.1-2.4c2.6-0.5,5.1-0.6,7.7-0.5c4.5,0.2,7.1,2.5,7.4,6.9
	c0.3,4,0.1,8,0.1,12c0,2.4-1.9,1.3-3,1.4s-2.6,0.6-2.6-1.5c0.1-3.6,0.1-7.3-0.2-10.9c-0.2-1.8-1-2.9-3-3.1c-2.2-0.2-3,0.4-2.9,2.7
	c0.2,3.6,0,7.3,0.1,10.9c0.1,2.7-1.8,1.8-3.1,1.9c-1.4,0.1-2.7,0.2-2.5-2C78.6,24.8,78.5,22.3,78.5,19.7z"/>
<path class="st2" d="M104.9,44.3c0-2.6,0-5.2,0-7.7c0-3.5,3-2.1,4.6-2.5c2-0.5,1.3,1.6,1.1,2.4c-0.4,2.9,1,3.5,3.5,3.2
	c1.7-0.1,3.7-0.7,3.5,2.4c-0.1,1.9-0.7,2.4-2.5,2.4c-4.4,0-4.4,0-4.4,4.5c0,0.7,0,1.4,0,2.1c0.1,3.6,0.8,4.4,4.3,4
	c2.5-0.3,2.8,0.9,3,2.7c0.3,2.3-1.6,1.8-2.6,2c-1.9,0.4-3.8,0.3-5.6-0.1c-3.1-0.8-4.7-3.2-4.9-7.1c0-0.2,0-0.4,0-0.5
	C105,49.5,105,46.9,104.9,44.3L104.9,44.3z"/>
<path class="st2" d="M32.9,50.2c0-2.6,0-5.2,0-7.7c0-1.1,0.3-1.9,1.5-2.2c3.2-0.7,6.4-1.5,9.8-0.7c1.4,0.3,1.9,0.8,1.6,2.1
	c-0.3,1.1,0.2,2.8-2,2.8c-5,0-5,0.1-5,5.1c0,2.8-0.1,5.5,0,8.3c0.1,2.2-1.2,2-2.6,1.9c-1.3-0.1-3.3,0.8-3.3-1.8
	C33,55.4,32.9,52.8,32.9,50.2z"/>
<path class="st2" d="M166.2,50.1c0.1-2.2,0.1-4.4-0.1-6.7c-0.2-2.3,0.8-3.1,2.9-3.5c2.8-0.5,5.6-1,8.5-0.3c1.1,0.3,2,0.7,1.4,1.9
	c-0.5,1.1,0.4,3-2.1,3c-5.1-0.2-5.1-0.1-5.1,5.1c0,2.8-0.1,5.5,0,8.3c0.1,2.4-1.4,2-2.8,2s-2.9,0.4-2.8-2
	C166.3,55.2,166.2,52.6,166.2,50.1z"/>
<path class="st2" d="M54.9,49.8c0,2.8-0.1,5.5,0,8.3c0.1,1.8-1.1,1.9-2.3,1.7c-1.3-0.2-3.5,1-3.5-1.5c-0.1-5.7,0-11.4,0-17.1
	c0-2.2,1.6-1.3,2.7-1.5c2.3-0.4,3.4,0.4,3.2,3C54.8,45,54.8,47.4,54.9,49.8z"/>
<path class="st2" d="M182.3,49.7c0-2.8,0.1-5.5,0-8.3c-0.1-2.3,1.4-1.8,2.7-1.8s3-0.6,2.9,1.8c-0.1,5.4,0,10.8,0,16.2
	c0,2.9-2.4,1.7-3.7,2c-1.7,0.4-1.8-0.8-1.8-2.1C182.4,55,182.3,52.3,182.3,49.7z"/>
<path class="st2" d="M55.4,33.9c0,1.7-1.4,3.2-3.1,3.2c0,0,0,0-0.1,0c-1.7,0.3-3.3-0.8-3.6-2.5c0-0.2,0-0.3,0-0.5
	c-0.1-1.8,1.2-3.3,3-3.5c0.1,0,0.2,0,0.2,0C53.9,30.6,55.1,31.8,55.4,33.9z"/>
<path class="st2" d="M188.4,33.8c0.2,1.6-0.9,3.1-2.5,3.4c-0.3,0-0.5,0-0.8,0c-1.7,0.2-3.2-1-3.3-2.7c0-0.2,0-0.4,0-0.6
	c0-2.1,1.3-3,3.1-3.3c1.7-0.2,3.2,1.1,3.4,2.8C188.4,33.5,188.4,33.7,188.4,33.8z"/>
<path class="st4" d="M113.6,50.2c-0.3-2.1,0-3.2,2.1-3.1c1.6,0.1,2.1,0.5,2.1,2.2c0.1,2.2-0.8,3.1-2.9,3.2
	C112.8,52.5,113.8,50.8,113.6,50.2z"/>
<path class="st4" d="M46.1,35c0.3,1,0.1,2-1.1,1.8s-3.3,0.6-3.5-1.8c-0.1-1.3-0.3-2.7,1.8-2.8C45.7,32.1,45.7,32.1,46.1,35z"/>
<path class="st1" d="M227.6,48.6c0,0.6,0,1.2,0,1.9c0,2.8-2.3,4.2-4.8,2.8c-2.2-1.3-2-3.6-1.7-5.7c0.1-1.9,1.5-3.4,3.4-3.6
	c2-0.3,3.6-0.1,3.2,2.6C227.5,47.2,227.5,47.9,227.6,48.6z"/>
<path class="st1" d="M38.7,19.1c-0.1-0.6-0.1-1.2,0-1.8c0.3-1.1-1-2.9,1-3.3c2-0.4,4-0.2,5.1,1.8c1.2,2.1,1.3,4.7,0.4,6.9
	c-0.8,2.4-2.9,2.3-4.9,2c-2.2-0.3-1.6-1.9-1.7-3.2C38.7,20.7,38.7,19.9,38.7,19.1z"/>
<path class="st1" d="M64.6,17.4c-1-0.7-3,0.9-3.1-1.1c-0.1-1.7,1.5-2.7,3.3-2.8c1.7-0.1,3.9,1.6,3.5,2.9
	C67.6,18.3,65.8,16.7,64.6,17.4z"/>
<path class="st1" d="M152.6,47.9c-1.2-1-3.4,1-3.5-1.4c0-1.7,1.6-2.6,3.4-2.7c1.9-0.1,3.4,1.1,3.3,2.7
	C155.8,49,153.5,46.7,152.6,47.9z"/>
<path class="st1" d="M130.3,47.9c-1.3-0.9-3.5,0.9-3.7-1.2c-0.1-1.8,1.6-2.8,3.5-2.8s3.4,1.2,3.3,2.8
	C133.4,49,131.1,46.7,130.3,47.9z"/>
<path class="st1" d="M22.7,49.6c0.2,1.4-0.2,2.9-1,4.1c-1.1,1.7-3.3,2.1-5,1c-0.5-0.3-0.9-0.8-1.2-1.3c-1.2-2.2-1.3-4.9-0.1-7.2
	c0.6-1.4,1.9-2.2,3.4-2.2s2.8,0.9,3.3,2.3C22.5,47.3,22.8,48.5,22.7,49.6z"/>
<path class="st1" d="M68.9,47.6c-0.4,0-0.7,0-1.1,0c-0.8-0.1-2.1,0.5-2.4-0.4C65.1,46,66,45.1,67,44.4c1.1-0.7,2.4-0.8,3.6-0.1
	c1.1,0.4,1.9,1.5,1.8,2.7c-0.2,1.3-1.6,0.4-2.5,0.7C69.6,47.7,69.3,47.7,68.9,47.6z"/>
<path class="st1" d="M22.7,19.4c0,1.2-0.2,2.3-0.7,3.4c-0.8,1.9-2.9,2.7-4.8,2c-0.9-0.4-1.6-1.1-1.9-1.9c-0.9-1.9-1-4-0.4-6
	c0.6-1.9,1.7-3.1,3.8-3c2.2,0,3.2,1.4,3.7,3.2C22.6,17.8,22.7,18.6,22.7,19.4z"/>
</svg>
