<svg id="Layer_1" data-name="Layer 1" xmlns="http://www.w3.org/2000/svg" viewBox="0 0 264.418 214.112">
  <path d="M14.232,239.9c2.7-2.7,7.5-7.5,10.8-10.5l12.3-12.3c7.2-8.1,24-24.9,32.1-32.7,5.4-5.1,18.6-18.9,25.5-26.1l3-3.6-1.5-1.5a54,54,0,0,1-4.8-4.5,14.588,14.588,0,0,1-4.2-5.4c-3-6.3-2.1-14.1,2.4-17.7,2.4-2.1,6.9-2.7,11.4-2.1,2.4.3,12.3,4.2,15.9,6.3a151.275,151.275,0,0,1,18.9,13.5,48.958,48.958,0,0,0,6,5.1,153.76,153.76,0,0,1,18.3,18.9c4.5,5.7,6.3,9.3,6.9,13.2.3,2.4.3,2.4-.6,4.8-1.8,5.1-6.9,10.8-12.3,15-7.8,5.7-16.2,9-34.2,13.8a85.046,85.046,0,0,0-8.4,2.1c-6.6,1.8-9.6,2.4-20.4,3.6-8.1.6-12,.6-14.1.3l-1.2-.3.6-.3a53.44,53.44,0,0,1,7.2-3.6c6-2.4,15.9-7.2,27.6-13.2,4.2-2.4,9.9-5.1,12.6-6.6,2.4-1.2,5.7-3,7.2-3.9,2.4-1.8,5.7-4.5,6.9-6.6a3.626,3.626,0,0,0,.9-3,4.615,4.615,0,0,0-1.8-3.3,51.516,51.516,0,0,0-9-5.7l-2.1-1.2-.3.3c0,.3-2.7,2.4-6,4.5-3,2.1-6.6,5.1-8.1,6.3-6,5.1-17.4,12.3-45.9,28.8-5.4,3-9,5.4-19.5,11.7-22.5,13.8-33,19.8-35.7,20.4l-1.2.3Z" transform="translate(-9.432 -37.687)"/>
  <path d="M220.932,148.7c-6-.9-11.7-4.5-18-11.1a54.152,54.152,0,0,1-12-21c-.6-2.7-.6-3.3-.6-7.2,0-3.6,0-4.8.3-6,1.5-4.2,4.2-7.5,6.9-9,3.6-1.8,9,.6,12.3,5.4a85.074,85.074,0,0,1,5.4,11.4c2.7,7.5,3.6,9.3,6.6,12.6,3.6,3.3,6,4.8,9,4.5a8.477,8.477,0,0,0,5.1-1.2c4.5-2.1,9.9-6,15.3-10.5a8.559,8.559,0,0,1,2.4-2.1,58.067,58.067,0,0,0,10.2-12c.9-1.2,1.5-2.1,1.5-2.1,0-.3.6-.9,1.2-1.8,1.8-3.3,5.1-10.2,5.4-12.3l.3-1.8h1.2l.3,3.6a40.978,40.978,0,0,1-.6,11.1c-.6,2.7-1.8,6.6-2.4,8.4a17.293,17.293,0,0,0-1.5,2.7c-5.7,14.1-13.5,24.3-24.6,31.5a63.307,63.307,0,0,1-14.1,6.6,4.459,4.459,0,0,0-1.8.3A33.913,33.913,0,0,1,220.932,148.7Z" transform="translate(-9.432 -37.687)"/>
  <path d="M77.532,110.9c0-.6-.3-2.1-.3-3.3-.6-3-.6-3.3-1.5-7.5-.6-5.1-.6-19.2.3-24.9,1.5-9.9,2.7-13.5,6.6-19.8,5.4-9,12-14.4,20.1-16.8a36.675,36.675,0,0,1,12.9-.6c13.8,1.8,30.3,11.1,37.8,21a30.664,30.664,0,0,1,5.1,10.5,12.592,12.592,0,0,1-1.2,8.1c-1.8,3.9-3.3,4.8-7.5,5.1-6,0-9.6-1.8-16.2-7.8a167.1,167.1,0,0,0-15.6-12.6,28.556,28.556,0,0,0-8.4-3c-3.6-.3-8.1,1.8-12.3,5.4-5.1,5.1-10.5,15-14.1,25.8-.3,1.5-1.2,4.5-2.1,7.2-.9,2.4-1.8,5.4-2.1,6.6a33.771,33.771,0,0,0-1.2,6l-.3,1.5Z" transform="translate(-9.432 -37.687)"/>
  <path d="M193.632,89.6c-10.5-1.5-18.3-9.3-19.5-19.5-.9-6.3,1.8-12.9,6.6-17.7a23.48,23.48,0,0,1,17.4-6.6,23.284,23.284,0,0,1,21.9,24.3c-1.2,7.2-5.7,13.8-12,16.8a21.272,21.272,0,0,1-4.8,2.1A35.2,35.2,0,0,1,193.632,89.6Z" transform="translate(-9.432 -37.687)"/>
  <path d="M199.332,251c0-.3,67.8-68.1,68.4-68.1h.3v68.4h-68.7Z" transform="translate(-9.432 -37.687)" style="fill: #f76c21"/>
  <path d="M198.828,182.1h69.2v69.2h-69.2Z" transform="translate(-9.432 -37.687)" style="fill: none;stroke: #231f20;stroke-miterlimit: 10"/>
</svg>
