<?xml version="1.0" encoding="utf-8"?>
<!-- Generator: Adobe Illustrator 25.2.3, SVG Export Plug-In . SVG Version: 6.00 Build 0)  -->
<svg version="1.1"
	 id="Layer_1" inkscape:version="0.91 r13725" sodipodi:docname="SBar1-4k.svg" xmlns:cc="http://creativecommons.org/ns#" xmlns:dc="http://purl.org/dc/elements/1.1/" xmlns:inkscape="http://www.inkscape.org/namespaces/inkscape" xmlns:rdf="http://www.w3.org/1999/02/22-rdf-syntax-ns#" xmlns:sodipodi="http://sodipodi.sourceforge.net/DTD/sodipodi-0.dtd" xmlns:svg="http://www.w3.org/2000/svg"
	 xmlns="http://www.w3.org/2000/svg" xmlns:xlink="http://www.w3.org/1999/xlink" x="0px" y="0px" viewBox="0 0 170.1 12.2"
	 style="enable-background:new 0 0 170.1 12.2;" xml:space="preserve">
<style type="text/css">
	.st0{fill:none;stroke:#000000;stroke-linecap:round;stroke-linejoin:round;}
	.st1{fill:#FFFFFF;}
</style>
<sodipodi:namedview  bordercolor="#666666" borderopacity="1" gridtolerance="10" guidetolerance="10" id="namedview60" inkscape:current-layer="Layer_1" inkscape:cx="88.449997" inkscape:cy="7.5999999" inkscape:document-units="cm" inkscape:pageopacity="0" inkscape:pageshadow="2" inkscape:window-height="1035" inkscape:window-maximized="1" inkscape:window-width="1920" inkscape:window-x="0" inkscape:window-y="1" inkscape:zoom="4" objecttolerance="10" pagecolor="#ffffff" showgrid="false" units="cm">
	</sodipodi:namedview>
<g id="Scale_Bar1" transform="matrix(1.2491021,0,0,0.98346502,-0.41834542,0.18896182)">
	<path id="path6" inkscape:connector-curvature="0" class="st0" d="M1.6,11.7h113.4"/>
	<path id="path8" inkscape:connector-curvature="0" class="st0" d="M1.6,11.6V6.4"/>
	<path id="path10" inkscape:connector-curvature="0" class="st0" d="M58.4,11.6V6.4"/>
	<path id="path12" inkscape:connector-curvature="0" class="st0" d="M115,11.6V6.4"/>
</g>
<g id="g14" transform="translate(36,7.9972805e-5)">
	<path id="path16" inkscape:connector-curvature="0" d="M115.4,0.4h0.9l1.3,3.9l1.3-3.9h0.9V5h-0.6V2.2c0-0.1,0-0.2,0-0.5
		s0-0.5,0-0.7l-1.3,3.8h-0.6L116,1.1v0.2c0,0.1,0,0.3,0,0.5c0,0.2,0,0.4,0,0.5V5h-0.6L115.4,0.4L115.4,0.4z"/>
	<path id="path18" inkscape:connector-curvature="0" d="M122.7,1.7c0.2,0.1,0.4,0.2,0.5,0.4c0.1,0.2,0.2,0.4,0.2,0.6
		c0,0.2,0.1,0.5,0.1,0.7h-2.4c0,0.3,0.1,0.6,0.2,0.8c0.2,0.2,0.4,0.3,0.7,0.3c0.2,0,0.6-0.1,0.7-0.3c0.1-0.1,0.2-0.2,0.2-0.4h0.6
		c0,0.2-0.1,0.3-0.2,0.4c-0.1,0.2-0.2,0.2-0.2,0.4c-0.2,0.2-0.4,0.3-0.6,0.3c-0.2,0-0.3,0.1-0.5,0.1c-0.4,0-0.8-0.2-1-0.5
		c-0.3-0.3-0.5-0.8-0.4-1.3c0-0.5,0.2-1,0.4-1.3c0.3-0.3,0.7-0.5,1.1-0.5C122.3,1.5,122.6,1.6,122.7,1.7L122.7,1.7z"/>
	<path id="path20" inkscape:connector-curvature="0" class="st1" d="M123,3c0-0.2-0.1-0.4-0.2-0.6c-0.2-0.2-0.5-0.4-0.8-0.4
		c-0.2,0-0.5,0.1-0.6,0.2c-0.2,0.2-0.2,0.5-0.2,0.7C121.1,3,123,3,123,3z"/>
	<path id="path22" inkscape:connector-curvature="0" d="M124.4,0.7h0.6v0.9h0.6v0.5H125v2.2c0,0.1,0,0.2,0.1,0.2c0.1,0,0.2,0,0.2,0
		h0.1h0.1V5c-0.1,0-0.2,0-0.2,0.1c-0.1,0-0.2,0-0.2,0c-0.2,0-0.4-0.1-0.6-0.2c-0.1-0.2-0.2-0.3-0.2-0.6V2.1h-0.5V1.6h0.5L124.4,0.7
		L124.4,0.7z"/>
	<path id="path24" inkscape:connector-curvature="0" d="M128.1,1.7c0.2,0.1,0.4,0.2,0.5,0.4c0.1,0.2,0.2,0.4,0.2,0.6
		c0,0.2,0.1,0.5,0.1,0.7h-2.4c0,0.3,0.1,0.6,0.2,0.8c0.2,0.2,0.4,0.3,0.7,0.3c0.2,0,0.6-0.1,0.7-0.3c0.1-0.1,0.2-0.2,0.2-0.4h0.6
		c0,0.2-0.1,0.3-0.2,0.4c-0.1,0.2-0.2,0.2-0.2,0.4c-0.2,0.2-0.4,0.3-0.6,0.3c-0.2,0-0.3,0.1-0.5,0.1c-0.4,0-0.8-0.2-1-0.5
		c-0.3-0.3-0.5-0.8-0.4-1.3c0-0.5,0.2-1,0.4-1.3c0.3-0.3,0.7-0.5,1.1-0.5C127.7,1.5,127.9,1.6,128.1,1.7L128.1,1.7z"/>
	<path id="path26" inkscape:connector-curvature="0" class="st1" d="M128.3,3c0-0.2-0.1-0.4-0.2-0.6c-0.2-0.2-0.5-0.4-0.8-0.4
		c-0.2,0-0.5,0.1-0.6,0.2c-0.2,0.2-0.2,0.5-0.2,0.7C126.5,3,128.3,3,128.3,3z"/>
	<path id="path28" inkscape:connector-curvature="0" d="M129.6,1.6h0.6v0.6c0.1-0.2,0.2-0.3,0.3-0.4c0.2-0.2,0.4-0.2,0.6-0.2
		c0,0,0,0,0.1,0s0.1,0,0.2,0v0.6h-0.1h-0.1c-0.2,0-0.5,0.1-0.6,0.2s-0.2,0.4-0.2,0.6v1.9h-0.6L129.6,1.6L129.6,1.6z"/>
	<path id="path30" inkscape:connector-curvature="0" d="M132.1,3.9c0,0.2,0.1,0.3,0.2,0.4c0.2,0.2,0.5,0.3,0.7,0.2
		c0.2,0,0.4-0.1,0.6-0.2c0.2-0.1,0.2-0.2,0.2-0.4s-0.1-0.2-0.2-0.3c-0.2-0.1-0.3-0.2-0.5-0.2l-0.5-0.1c-0.2-0.1-0.5-0.2-0.6-0.2
		c-0.2-0.2-0.4-0.4-0.4-0.6c0-0.3,0.1-0.6,0.3-0.8c0.2-0.2,0.6-0.3,1-0.3c0.4,0,0.8,0.2,1.1,0.5c0.2,0.2,0.2,0.4,0.2,0.6h-0.6
		c0-0.2-0.1-0.2-0.2-0.3c-0.2-0.2-0.4-0.2-0.7-0.2c-0.2,0-0.3,0-0.5,0.2c-0.1,0.1-0.2,0.2-0.2,0.3s0.1,0.3,0.2,0.3
		c0.1,0.1,0.2,0.1,0.4,0.2l0.4,0.1c0.3,0.1,0.6,0.2,0.8,0.3c0.2,0.2,0.3,0.4,0.3,0.6c0,0.3-0.2,0.6-0.3,0.8c-0.3,0.2-0.6,0.3-1,0.3
		c-0.4,0-0.8-0.1-1-0.3c-0.2-0.2-0.3-0.6-0.3-0.8C131.6,4,132.1,3.9,132.1,3.9z"/>
</g>
<g id="g32" transform="translate(18,7.9972805e-5)">
	<path id="path34" inkscape:connector-curvature="0" d="M49.6,1.5V1c0.3,0,0.6-0.1,1-0.2C50.8,0.6,50.9,0.3,51,0h0.5v5h-0.6V1.5
		C50.8,1.5,49.6,1.5,49.6,1.5z"/>
	<path id="path36" inkscape:connector-curvature="0" d="M56.2,0.8c0.2,0.6,0.4,1.1,0.3,1.7c0,0.6-0.1,1.2-0.3,1.7
		c-0.2,0.6-0.8,1-1.4,1c-0.6,0-1.1-0.3-1.4-0.8C53.2,3.8,53,3.2,53,2.6c0-0.5,0.1-1,0.2-1.4c0.2-0.7,0.8-1.2,1.5-1.1
		C55.4,0,56,0.3,56.2,0.8z"/>
	<path id="path38" inkscape:connector-curvature="0" class="st1" d="M55.6,4.2c0.2-0.5,0.3-1,0.3-1.6c0-0.5-0.1-1-0.2-1.4
		c-0.1-0.3-0.5-0.6-0.8-0.6c-0.3,0-0.7,0.2-0.8,0.6c-0.2,0.5-0.3,1-0.2,1.5c0,0.4,0.1,0.8,0.2,1.2c0.1,0.5,0.6,0.8,1,0.7
		C55.3,4.6,55.5,4.4,55.6,4.2C55.6,4.2,55.6,4.2,55.6,4.2z"/>
	<path id="path40" inkscape:connector-curvature="0" d="M60.2,0.8c0.2,0.6,0.4,1.1,0.3,1.7c0,0.6-0.1,1.2-0.3,1.7
		c-0.2,0.6-0.8,1-1.4,1c-0.6,0-1.1-0.3-1.4-0.8C57.2,3.8,57,3.2,57,2.6c0-0.5,0.1-1,0.2-1.4c0.2-0.7,0.8-1.2,1.5-1.1
		C59.4,0,60,0.3,60.2,0.8z"/>
	<path id="path42" inkscape:connector-curvature="0" class="st1" d="M59.6,4.2c0.2-0.5,0.3-1,0.3-1.6c0-0.5-0.1-1-0.2-1.4
		c-0.1-0.3-0.5-0.6-0.8-0.6c-0.3,0-0.7,0.2-0.8,0.6c-0.2,0.5-0.3,1-0.2,1.5c0,0.4,0.1,0.8,0.2,1.2c0.1,0.5,0.6,0.8,1,0.7
		C59.3,4.6,59.5,4.4,59.6,4.2C59.6,4.2,59.6,4.2,59.6,4.2z"/>
</g>
<g id="g44" transform="translate(34,7.9972805e-5)">
	<path id="path46" inkscape:connector-curvature="0" d="M102.6,3.9c0.2-0.4,0.6-0.7,0.9-0.9l0.6-0.4c0.2-0.2,0.5-0.2,0.6-0.5
		c0.2-0.2,0.3-0.4,0.3-0.6S105,1,104.8,0.8c-0.2-0.2-0.5-0.2-0.7-0.2c-0.4,0-0.7,0.2-0.9,0.5c-0.1,0.2-0.2,0.5-0.2,0.7h-0.6
		c0-0.4,0.1-0.7,0.2-1c0.3-0.5,0.9-0.8,1.4-0.7c0.5-0.1,1,0.2,1.3,0.5c0.2,0.3,0.4,0.6,0.4,1s-0.2,0.8-0.4,1
		c-0.2,0.2-0.6,0.5-0.9,0.6L104,3.4c-0.2,0.1-0.4,0.2-0.6,0.4C103.2,4,103,4.2,103,4.5h2.7V5h-3.4C102.3,4.6,102.4,4.2,102.6,3.9
		L102.6,3.9z"/>
	<path id="path48" inkscape:connector-curvature="0" d="M109.4,0.8c0.2,0.6,0.4,1.1,0.3,1.7c0,0.6-0.1,1.2-0.3,1.7
		c-0.2,0.6-0.8,1-1.4,1c-0.6,0-1.1-0.3-1.4-0.8c-0.2-0.6-0.4-1.1-0.4-1.8c0-0.5,0.1-1,0.2-1.4c0.2-0.7,0.8-1.2,1.5-1.1
		C108.6,0,109.2,0.3,109.4,0.8z"/>
	<path id="path50" inkscape:connector-curvature="0" class="st1" d="M108.8,4.2c0.2-0.5,0.3-1,0.3-1.6c0-0.5-0.1-1-0.2-1.4
		c-0.1-0.3-0.5-0.6-0.8-0.6c-0.3,0-0.7,0.2-0.8,0.6c-0.2,0.5-0.3,1-0.2,1.5c0,0.4,0.1,0.8,0.2,1.2c0.1,0.5,0.6,0.8,1,0.7
		C108.5,4.6,108.7,4.4,108.8,4.2L108.8,4.2L108.8,4.2z"/>
	<path id="path52" inkscape:connector-curvature="0" d="M113.4,0.8c0.2,0.6,0.4,1.1,0.3,1.7c0,0.6-0.1,1.2-0.3,1.7
		c-0.2,0.6-0.8,1-1.4,1c-0.6,0-1.1-0.3-1.4-0.8c-0.2-0.6-0.4-1.1-0.4-1.8c0-0.5,0.1-1,0.2-1.4c0.2-0.7,0.8-1.2,1.5-1.1
		C112.6,0,113.2,0.3,113.4,0.8z"/>
	<path id="path54" inkscape:connector-curvature="0" class="st1" d="M112.8,4.2c0.2-0.5,0.3-1,0.3-1.6c0-0.5-0.1-1-0.2-1.4
		c-0.1-0.3-0.5-0.6-0.8-0.6c-0.3,0-0.7,0.2-0.8,0.6c-0.2,0.5-0.3,1-0.2,1.5c0,0.4,0.1,0.8,0.2,1.2c0.1,0.5,0.6,0.8,1,0.7
		C112.5,4.6,112.7,4.4,112.8,4.2L112.8,4.2L112.8,4.2z"/>
</g>
<path id="path56" inkscape:connector-curvature="0" d="M3.1,0.8c0.2,0.6,0.4,1.1,0.3,1.7c0,0.6-0.1,1.2-0.3,1.7
	c-0.2,0.6-0.8,1-1.4,1c-0.6,0-1.1-0.3-1.4-0.8C0.1,3.8,0,3.3,0,2.6c0-0.5,0.1-1,0.2-1.4C0.4,0.5,1,0,1.8,0C2.3,0,2.9,0.3,3.1,0.8z"
	/>
<path id="path58" inkscape:connector-curvature="0" class="st1" d="M2.5,4.2c0.2-0.5,0.3-1,0.3-1.6c0-0.5-0.1-1-0.2-1.4
	C2.5,0.8,2.2,0.6,1.8,0.6C1.4,0.6,1,0.7,1,1.1c-0.2,0.5-0.3,1-0.2,1.5c0,0.4,0.1,0.8,0.2,1.2c0.1,0.5,0.6,0.8,1,0.7
	C2.2,4.6,2.4,4.4,2.5,4.2z"/>
</svg>
