<?xml version="1.0" encoding="utf-8"?>
<!-- Generator: Adobe Illustrator 25.2.3, SVG Export Plug-In . SVG Version: 6.00 Build 0)  -->
<svg version="1.1" id="Layer_1" xmlns="http://www.w3.org/2000/svg" xmlns:xlink="http://www.w3.org/1999/xlink" x="0px" y="0px"
	 viewBox="0 0 170.8 16.9" style="enable-background:new 0 0 170.8 16.9;" xml:space="preserve">
<style type="text/css">
	.st0{fill-rule:evenodd;clip-rule:evenodd;stroke:#000000;stroke-linecap:round;stroke-linejoin:round;}
	.st1{fill:none;stroke:#000000;stroke-linecap:round;stroke-linejoin:round;}
	.st2{fill:#FFFFFF;}
</style>
<g id="Scale_Bar2">
	<path class="st0" d="M1.9,16.4v-6h28.3v6H1.9z"/>
	<path class="st1" d="M30.2,16.4v-6h28.3v6H30.2z"/>
	<path class="st0" d="M58.6,16.4v-6h28.3v6H58.6z"/>
	<path class="st1" d="M86.9,16.4v-6h28.3v6H86.9z"/>
	<path class="st0" d="M115.3,16.4v-6h28.3v6H115.3z"/>
	<g>
		<g>
			<path d="M0,2.9c0-0.6,0.1-1.1,0.2-1.6c0.1-0.4,0.3-0.7,0.6-1C1.1,0.1,1.5,0,1.9,0c0.3,0,0.6,0.1,0.8,0.2s0.4,0.3,0.6,0.5
				C3.4,1,3.5,1.3,3.6,1.6C3.7,2,3.7,2.5,3.7,2.9c0,0.5-0.1,1.1-0.2,1.6c-0.1,0.4-0.3,0.7-0.6,1c-0.3,0.2-0.7,0.4-1,0.3
				c-0.5,0-1-0.2-1.3-0.6C0.1,4.6-0.1,3.7,0,2.9z"/>
			<path class="st2" d="M0.7,2.9c0,0.7,0.1,1.3,0.4,1.9c0.2,0.3,0.5,0.5,0.8,0.5s0.6-0.2,0.8-0.5C3,4.2,3.1,3.6,3,2.9
				c0.1-0.6,0-1.3-0.3-1.8C2.5,0.8,2.2,0.6,1.9,0.6C1.5,0.6,1.3,0.7,1.1,1C0.8,1.6,0.7,2.3,0.7,2.9z"/>
		</g>
	</g>
	<g>
		<g>
			<path d="M26.5,5.8h-0.7V1.3c-0.2,0.2-0.4,0.3-0.7,0.5c-0.2,0.1-0.5,0.3-0.7,0.4V1.4c0.4-0.2,0.7-0.4,1-0.7
				c0.3-0.2,0.5-0.5,0.6-0.8h0.5L26.5,5.8z"/>
		</g>
		<g>
			<path d="M28.3,2.9c0-0.6,0.1-1.1,0.2-1.6c0.1-0.4,0.3-0.7,0.6-1c0.3-0.2,0.7-0.3,1-0.3s0.6,0.1,0.8,0.2c0.2,0.1,0.4,0.3,0.6,0.5
				C31.8,1,31.9,1.3,32,1.6c0,0.4,0.1,0.9,0.1,1.3c0,0.5-0.1,1.1-0.2,1.6c-0.1,0.4-0.3,0.7-0.6,1C30.6,6,29.6,5.9,29,5.2
				C28.5,4.6,28.3,3.7,28.3,2.9z"/>
			<path class="st2" d="M29.1,2.9c-0.1,0.6,0.1,1.3,0.3,1.9c0.3,0.4,0.8,0.6,1.3,0.3C30.8,5,31,4.9,31,4.8c0.3-0.6,0.4-1.2,0.3-1.9
				c0.1-0.6,0-1.3-0.3-1.9c-0.2-0.3-0.5-0.5-0.8-0.5s-0.6,0.1-0.8,0.4C29.1,1.6,29,2.3,29.1,2.9L29.1,2.9z"/>
		</g>
		<g>
			<path d="M32.8,2.9c0-0.6,0.1-1.1,0.2-1.6c0.1-0.4,0.3-0.7,0.6-1c0.3-0.2,0.7-0.4,1-0.3c0.3,0,0.6,0.1,0.8,0.2s0.4,0.3,0.6,0.5
				c0.2,0.3,0.3,0.5,0.4,0.9C36.5,2,36.5,2.5,36.5,3s-0.1,1.1-0.2,1.6c-0.1,0.4-0.3,0.7-0.6,1C35,6,34,5.9,33.4,5.3
				C32.9,4.6,32.7,3.7,32.8,2.9z"/>
			<path class="st2" d="M33.5,2.9c-0.1,0.6,0.1,1.3,0.3,1.9c0.3,0.4,0.8,0.6,1.3,0.3c0.1-0.1,0.3-0.2,0.3-0.3
				c0.3-0.6,0.4-1.2,0.3-1.9c0.1-0.6-0.1-1.3-0.3-1.9c-0.2-0.3-0.5-0.5-0.8-0.5S34,0.6,33.8,0.9C33.6,1.6,33.5,2.3,33.5,2.9z"/>
		</g>
	</g>
	<g>
		<g>
			<path d="M55.9,5.1v0.7h-3.8c0-0.2,0-0.3,0.1-0.5c0.1-0.3,0.3-0.5,0.5-0.8c0.3-0.3,0.6-0.6,0.9-0.9c0.5-0.4,0.9-0.8,1.3-1.2
				c0.2-0.2,0.3-0.5,0.3-0.8s-0.1-0.5-0.3-0.7s-0.5-0.3-0.8-0.3s-0.6,0.1-0.8,0.3C53.1,1.1,53,1.4,53,1.7l-0.7-0.1
				c0-0.5,0.2-0.9,0.6-1.2C53.2,0.1,53.7,0,54.1,0c0.5,0,0.9,0.1,1.3,0.5c0.3,0.3,0.5,0.7,0.5,1.1c0,0.2,0,0.5-0.1,0.7
				c-0.1,0.3-0.3,0.5-0.5,0.7c-0.3,0.4-0.7,0.7-1.1,1c-0.4,0.4-0.7,0.6-0.8,0.7s-0.2,0.2-0.3,0.4H55.9z"/>
		</g>
		<g>
			<path d="M56.7,2.9c0-0.6,0.1-1.1,0.2-1.6c0.1-0.4,0.3-0.7,0.6-1c0.3-0.2,0.7-0.3,1-0.3s0.6,0.1,0.8,0.2s0.4,0.3,0.6,0.5
				c0.2,0.3,0.3,0.6,0.4,0.9C60.4,2,60.4,2.5,60.4,3s-0.1,1.1-0.2,1.6c-0.1,0.4-0.3,0.7-0.6,1c-0.7,0.5-1.7,0.4-2.3-0.3
				C56.8,4.6,56.6,3.7,56.7,2.9z"/>
			<path class="st2" d="M57.4,2.9c-0.1,0.6,0.1,1.3,0.3,1.9C58,5.3,58.6,5.4,59,5.1c0.1-0.1,0.3-0.2,0.3-0.3
				c0.3-0.6,0.4-1.2,0.3-1.9c0.1-0.6-0.1-1.3-0.3-1.9c-0.2-0.3-0.5-0.5-0.8-0.5s-0.6,0.1-0.8,0.4C57.5,1.6,57.4,2.3,57.4,2.9z"/>
		</g>
		<g>
			<path d="M61.1,2.9c0-0.6,0.1-1.1,0.2-1.6c0.1-0.4,0.3-0.7,0.6-1C62.3,0.1,62.6,0,63,0c0.3,0,0.6,0.1,0.8,0.2s0.4,0.3,0.6,0.5
				c0.2,0.3,0.3,0.5,0.4,0.9s0.1,0.9,0.1,1.4s-0.1,1.1-0.2,1.6c-0.1,0.4-0.3,0.7-0.6,1c-0.7,0.5-1.7,0.4-2.3-0.3
				C61.3,4.6,61.1,3.7,61.1,2.9z"/>
			<path class="st2" d="M61.9,2.9c-0.1,0.6,0.1,1.3,0.3,1.9c0.3,0.4,0.8,0.6,1.3,0.3c0.1-0.1,0.3-0.2,0.3-0.3
				c0.3-0.6,0.4-1.2,0.3-1.9C64.2,2.3,64,1.6,63.8,1c-0.2-0.3-0.5-0.5-0.8-0.5s-0.6,0.1-0.8,0.4C61.9,1.6,61.8,2.3,61.9,2.9
				L61.9,2.9z"/>
		</g>
	</g>
	<g>
		<g>
			<path d="M80.6,4.2l0.7-0.1c0,0.3,0.2,0.6,0.4,0.9c0.2,0.2,0.4,0.3,0.7,0.3c0.3,0,0.6-0.1,0.8-0.3c0.2-0.2,0.3-0.5,0.3-0.9
				c0-0.3-0.1-0.6-0.3-0.8C83.1,3.1,82.8,3,82.5,3c-0.2,0-0.4,0-0.5,0l0.1-0.6h0.1c0.3,0,0.6-0.1,0.8-0.2c0.2-0.2,0.4-0.4,0.4-0.7
				c0-0.2-0.1-0.5-0.3-0.6c-0.2-0.2-0.4-0.3-0.7-0.3c-0.3,0-0.5,0.1-0.7,0.3s-0.3,0.5-0.3,0.8l-0.7-0.1c0.1-0.4,0.3-0.8,0.6-1.1
				C81.6,0.1,82,0,82.4,0c0.3,0,0.6,0.1,0.9,0.2c0.2,0.1,0.5,0.3,0.6,0.5C84,1,84.1,1.2,84.1,1.5c0,0.2-0.1,0.5-0.2,0.7
				s-0.4,0.4-0.6,0.5c0.3,0.1,0.6,0.2,0.8,0.5c0.2,0.3,0.3,0.6,0.3,0.9c0,0.5-0.2,0.9-0.5,1.3c-0.4,0.4-0.9,0.5-1.4,0.5
				s-0.9-0.1-1.3-0.4C80.8,5.1,80.6,4.7,80.6,4.2z"/>
		</g>
		<g>
			<path d="M85,2.9c0-0.6,0.1-1.1,0.2-1.6c0.1-0.4,0.3-0.7,0.6-1c0.3-0.2,0.7-0.3,1-0.3s0.6,0.1,0.8,0.2c0.2,0.1,0.4,0.3,0.6,0.5
				c0.2,0.3,0.3,0.5,0.4,0.9s0.1,0.9,0.1,1.4s-0.1,1.1-0.2,1.6c-0.1,0.4-0.3,0.7-0.6,1c-0.7,0.5-1.7,0.4-2.3-0.3
				C85.2,4.6,85,3.7,85,2.9z"/>
			<path class="st2" d="M85.8,2.9c-0.1,0.6,0.1,1.3,0.3,1.9c0.3,0.4,0.8,0.6,1.3,0.3c0.1-0.1,0.3-0.2,0.3-0.3
				C88,4.2,88.1,3.6,88,2.9c0.1-0.6,0-1.3-0.3-1.9c-0.2-0.3-0.5-0.5-0.8-0.5s-0.6,0.1-0.8,0.4C85.8,1.6,85.7,2.3,85.8,2.9z"/>
		</g>
		<g>
			<path d="M89.5,2.9c0-0.6,0.1-1.1,0.2-1.6c0.1-0.4,0.3-0.7,0.6-1C90.6,0.1,91,0,91.4,0c0.3,0,0.6,0.1,0.8,0.2
				c0.2,0.1,0.4,0.3,0.6,0.5C92.9,1,93,1.3,93.1,1.6C93.2,2,93.2,2.5,93.2,3S93.1,4.1,93,4.6c-0.1,0.4-0.3,0.7-0.6,1
				c-0.7,0.5-1.7,0.4-2.3-0.3C89.6,4.6,89.4,3.7,89.5,2.9z"/>
			<path class="st2" d="M90.2,2.9c-0.1,0.6,0.1,1.3,0.3,1.9c0.3,0.4,0.8,0.6,1.3,0.3c0.1-0.1,0.3-0.2,0.3-0.3
				c0.3-0.6,0.4-1.2,0.3-1.9c0.1-0.6-0.1-1.3-0.3-1.9c-0.2-0.3-0.5-0.5-0.8-0.5s-0.6,0.1-0.8,0.4C90.3,1.6,90.2,2.3,90.2,2.9z"/>
		</g>
	</g>
	<g>
		<g>
			<polygon points="111.2,5.8 111.2,4.4 108.7,4.4 108.7,3.7 111.3,0 111.9,0 111.9,3.7 112.7,3.7 112.7,4.4 111.9,4.4 111.9,5.8 
							"/>
			<polygon class="st2" points="111.2,3.7 111.2,1.2 109.4,3.7 			"/>
		</g>
		<g>
			<path d="M113.4,2.9c0-0.6,0.1-1.1,0.2-1.6c0.1-0.4,0.3-0.7,0.6-1c0.3-0.2,0.7-0.4,1-0.3c0.3,0,0.6,0.1,0.8,0.2
				c0.2,0.1,0.4,0.3,0.6,0.5c0.2,0.3,0.3,0.6,0.4,0.9c0.1,0.4,0.1,0.9,0.1,1.4s-0.1,1.1-0.2,1.6c-0.1,0.4-0.3,0.7-0.6,1
				c-0.7,0.5-1.7,0.4-2.3-0.3C113.5,4.6,113.3,3.7,113.4,2.9z"/>
			<path class="st2" d="M114.1,2.9c-0.1,0.6,0.1,1.3,0.3,1.9c0.3,0.4,0.8,0.6,1.3,0.3c0.1-0.1,0.3-0.2,0.3-0.3
				c0.3-0.6,0.4-1.2,0.3-1.9c0.1-0.6-0.1-1.3-0.3-1.9c-0.2-0.3-0.5-0.5-0.8-0.5s-0.6,0.1-0.8,0.4C114.2,1.6,114,2.3,114.1,2.9z"/>
		</g>
		<g>
			<path d="M117.8,2.9c0-0.6,0.1-1.1,0.2-1.6c0.1-0.4,0.3-0.7,0.6-1c0.3-0.2,0.7-0.4,1-0.3c0.3,0,0.6,0.1,0.8,0.2
				c0.2,0.1,0.4,0.3,0.6,0.5c0.2,0.3,0.3,0.6,0.4,0.9c0.1,0.4,0.1,0.9,0.1,1.4s-0.1,1.1-0.2,1.6c-0.1,0.4-0.3,0.7-0.6,1
				C120,6,119,5.9,118.4,5.3C118,4.6,117.8,3.7,117.8,2.9z"/>
			<path class="st2" d="M118.6,2.9c-0.1,0.6,0.1,1.3,0.3,1.9c0.3,0.4,0.8,0.6,1.3,0.3c0.1-0.1,0.3-0.2,0.3-0.3
				c0.3-0.6,0.4-1.2,0.3-1.9c0.1-0.6-0.1-1.3-0.3-1.9c-0.2-0.3-0.5-0.5-0.8-0.5s-0.6,0.1-0.8,0.4C118.6,1.6,118.5,2.3,118.6,2.9z"/>
		</g>
	</g>
	<g>
		<g>
			<path d="M137.3,4.2l0.7-0.1c0,0.3,0.2,0.6,0.4,0.8c0.2,0.2,0.5,0.3,0.7,0.3c0.3,0,0.6-0.1,0.9-0.4c0.2-0.3,0.4-0.6,0.4-1
				c0-0.3-0.1-0.7-0.3-0.9s-0.6-0.4-0.9-0.3c-0.2,0-0.4,0.1-0.6,0.2c-0.2,0.1-0.3,0.2-0.4,0.4L137.4,3l0.6-2.9h2.8v0.7h-2.3
				l-0.3,1.5c0.3-0.2,0.7-0.4,1.1-0.4c0.5,0,0.9,0.2,1.3,0.5c0.3,0.4,0.5,0.8,0.5,1.3s-0.1,1-0.5,1.3c-0.4,0.5-0.9,0.7-1.5,0.7
				c-0.5,0-0.9-0.1-1.3-0.4C137.5,5.1,137.3,4.7,137.3,4.2z"/>
		</g>
		<g>
			<path d="M141.7,2.9c0-0.6,0.1-1.1,0.2-1.6c0.1-0.4,0.3-0.7,0.6-1c0.3-0.2,0.7-0.4,1-0.3c0.3,0,0.6,0.1,0.8,0.2s0.4,0.3,0.6,0.5
				c0.2,0.3,0.3,0.5,0.4,0.9c0.1,0.4,0.1,0.9,0.1,1.4s-0.1,1.1-0.2,1.6c-0.1,0.4-0.3,0.7-0.6,1c-0.3,0.2-0.7,0.4-1,0.3
				c-0.5,0-1-0.2-1.3-0.6C141.9,4.6,141.7,3.7,141.7,2.9z"/>
			<path class="st2" d="M142.5,2.9c-0.1,0.6,0.1,1.3,0.3,1.9c0.3,0.4,0.8,0.6,1.3,0.3c0.1-0.1,0.3-0.2,0.3-0.3
				c0.3-0.6,0.4-1.2,0.3-1.9c0.1-0.6-0.1-1.3-0.3-1.9c-0.2-0.3-0.5-0.5-0.8-0.5s-0.6,0.1-0.8,0.4C142.5,1.6,142.4,2.3,142.5,2.9z"/>
		</g>
		<g>
			<path d="M146.2,2.9c0-0.6,0.1-1.1,0.2-1.6c0.1-0.4,0.3-0.7,0.6-1c0.3-0.2,0.7-0.4,1-0.3c0.3,0,0.6,0.1,0.8,0.2s0.4,0.3,0.6,0.5
				c0.2,0.3,0.3,0.6,0.4,0.9c0.1,0.4,0.1,0.9,0.1,1.4s-0.1,1.1-0.2,1.6c-0.1,0.4-0.3,0.7-0.6,1c-0.3,0.2-0.7,0.4-1,0.3
				c-0.5,0-1-0.2-1.3-0.6C146.3,4.6,146.1,3.7,146.2,2.9z"/>
			<path class="st2" d="M146.9,2.9c-0.1,0.6,0.1,1.3,0.3,1.9c0.3,0.4,0.8,0.6,1.3,0.3c0.1-0.1,0.3-0.2,0.3-0.3
				c0.3-0.6,0.4-1.2,0.3-1.9c0.1-0.6-0.1-1.3-0.3-1.9c-0.2-0.3-0.5-0.5-0.8-0.5s-0.6,0.1-0.8,0.4C147,1.6,146.8,2.3,146.9,2.9
				L146.9,2.9z"/>
		</g>
	</g>
	<g>
		<g>
			<path d="M147.2,16.4v-5.7h1.1l1.4,4.1c0.1,0.4,0.2,0.7,0.3,0.8c0.1-0.2,0.2-0.5,0.3-0.9l1.4-4h1v5.7H152v-4.8l-1.7,4.8h-0.7
				l-1.7-4.9v4.9H147.2z"/>
		</g>
		<g>
			<path d="M156.7,15.1l0.7,0.1c-0.1,0.4-0.3,0.7-0.6,1c-0.3,0.2-0.8,0.4-1.2,0.4c-0.5,0-1.1-0.2-1.4-0.6c-0.4-0.4-0.6-1-0.5-1.6
				c0-0.6,0.2-1.2,0.5-1.6c0.4-0.4,0.9-0.6,1.4-0.6s1,0.2,1.4,0.6c0.4,0.4,0.6,1,0.5,1.6c0,0,0,0.1,0,0.2h-3.1c0,0.4,0.1,0.8,0.4,1
				c0.2,0.2,0.5,0.4,0.9,0.4c0.2,0,0.5-0.1,0.7-0.2C156.4,15.6,156.6,15.4,156.7,15.1z"/>
			<path class="st2" d="M154.3,14h2.3c0-0.3-0.1-0.6-0.3-0.8c-0.2-0.3-0.5-0.4-0.9-0.4c-0.3,0-0.6,0.1-0.8,0.3
				C154.5,13.3,154.4,13.6,154.3,14L154.3,14z"/>
		</g>
		<g>
			<path d="M159.8,15.8l0.1,0.6c-0.2,0-0.4,0.1-0.5,0.1c-0.2,0-0.4,0-0.6-0.1c-0.1-0.1-0.2-0.2-0.3-0.3c-0.1-0.3-0.1-0.6-0.1-0.8
				v-2.4h-0.5v-0.5h0.5v-1l0.7-0.4v1.4h0.7v0.5h-0.7v2.4c0,0.1,0,0.3,0,0.4c0,0.1,0.1,0.1,0.1,0.1c0.1,0,0.2,0.1,0.2,0.1
				C159.6,15.8,159.7,15.8,159.8,15.8z"/>
		</g>
		<g>
			<path d="M163.3,15.1l0.7,0.1c-0.1,0.4-0.3,0.7-0.6,1c-0.3,0.2-0.8,0.4-1.2,0.4c-0.5,0-1.1-0.2-1.4-0.6c-0.4-0.4-0.6-1-0.5-1.6
				c0-0.6,0.2-1.2,0.5-1.6c0.4-0.4,0.9-0.6,1.4-0.6s1,0.2,1.4,0.6c0.4,0.4,0.6,1,0.5,1.6c0,0,0,0.1,0,0.2H161c0,0.4,0.1,0.8,0.4,1
				c0.2,0.2,0.5,0.4,0.9,0.4c0.2,0,0.5-0.1,0.7-0.2C163.1,15.6,163.3,15.4,163.3,15.1z"/>
			<path class="st2" d="M161,14h2.3c0-0.3-0.1-0.6-0.3-0.8c-0.2-0.3-0.5-0.4-0.9-0.4c-0.3,0-0.6,0.1-0.8,0.3
				C161.2,13.3,161,13.6,161,14L161,14z"/>
		</g>
		<g>
			<path d="M164.9,16.4v-4.1h0.6v0.6c0.1-0.2,0.3-0.4,0.4-0.6c0.1-0.1,0.3-0.1,0.5-0.1c0.3,0,0.5,0.1,0.7,0.2l-0.2,0.7
				c-0.2-0.1-0.3-0.1-0.5-0.2c-0.1,0-0.3,0-0.4,0.1c-0.1,0.1-0.2,0.2-0.3,0.4c-0.1,0.3-0.1,0.5-0.1,0.8v2.2H164.9z"/>
		</g>
		<g>
			<path d="M167.3,15.2l0.7-0.1c0,0.2,0.1,0.5,0.3,0.6c0.2,0.2,0.5,0.2,0.7,0.2c0.3,0,0.5-0.1,0.7-0.2c0.1-0.1,0.2-0.3,0.2-0.5
				s-0.1-0.3-0.2-0.4c-0.2-0.1-0.5-0.2-0.7-0.2c-0.4-0.1-0.7-0.2-1.1-0.3c-0.4-0.2-0.6-0.5-0.6-1c0-0.2,0-0.4,0.1-0.5
				c0.1-0.2,0.2-0.3,0.3-0.4c0.1-0.1,0.3-0.2,0.4-0.2c0.2-0.1,0.4-0.1,0.6-0.1c0.3,0,0.6,0,0.9,0.1c0.2,0.1,0.4,0.2,0.5,0.4
				s0.2,0.4,0.2,0.6l-0.7,0.1c0-0.2-0.1-0.4-0.3-0.5s-0.4-0.2-0.6-0.2c-0.2,0-0.5,0-0.7,0.2c-0.1,0.1-0.2,0.2-0.2,0.4
				c0,0.1,0,0.2,0.1,0.2c0.1,0.1,0.2,0.1,0.3,0.2c0.1,0,0.3,0.1,0.6,0.2c0.4,0.1,0.7,0.2,1,0.3c0.2,0.1,0.3,0.2,0.5,0.4
				c0.1,0.2,0.2,0.4,0.2,0.6c0,0.2-0.1,0.5-0.2,0.7c-0.1,0.2-0.4,0.4-0.6,0.5c-0.3,0.1-0.6,0.2-0.9,0.2c-0.4,0-0.9-0.1-1.2-0.3
				C167.6,15.9,167.4,15.6,167.3,15.2z"/>
		</g>
	</g>
</g>
</svg>
